<svg height="2500" viewBox="0 0 538.584 538.583" width="2500" xmlns="http://www.w3.org/2000/svg" xmlns:xlink="http://www.w3.org/1999/xlink"><linearGradient id="a"><stop offset=".387" stop-color="#d1d3d4" stop-opacity="0"/><stop offset="1" stop-color="#d1d3d4"/></linearGradient><linearGradient id="b" gradientTransform="matrix(1 0 0 -1 1045.93 1658.759)" gradientUnits="userSpaceOnUse" x1="-825.508" x2="-825.508" xlink:href="#a" y1="1338.301" y2="1419.102"/><linearGradient id="c" gradientTransform="matrix(1 0 0 -1 1045.93 1658.759)" gradientUnits="userSpaceOnUse" x1="-724.552" x2="-724.552" xlink:href="#a" y1="1378.602" y2="1462.591"/><linearGradient id="d"><stop offset="0" stop-color="#e8e7e5"/><stop offset="1" stop-color="#fff"/></linearGradient><linearGradient id="e" gradientTransform="matrix(1 0 0 -1 1045.93 1658.759)" gradientUnits="userSpaceOnUse" x1="-874.103" x2="-680.039" xlink:href="#d" y1="1302.263" y2="1302.263"/><linearGradient id="f" gradientTransform="matrix(1 0 0 -1 1045.93 1658.759)" gradientUnits="userSpaceOnUse" x1="-883.032" x2="-672.341" xlink:href="#d" y1="1442.031" y2="1442.031"/><path d="m0 0h538.584v538.583h-538.584z" fill="none"/><path d="m405.5 467.454-136.21 36.676-136.212-36.676-31.432-340.525h335.29z" fill="#2062af"/><path d="m269.289 154.511v320.367l.308.084 110.229-29.682 25.443-290.769z" fill="#3c9cd7"/><path d="m191.985 76.899v-20.268h29.571v-22.178h-51.749v62.684h51.749v-20.238zm82.766-20.268h20.674v-22.178h-51.754v22.178c6.924 6.924 10.535 10.238 20.549 20.252-5.854 0-20.549.021-20.549.02v20.234h51.754v-20.238zm73.352 0h20.673v-22.178h-51.756v22.178c6.924 6.924 10.537 10.238 20.551 20.252-5.852 0-20.551.021-20.551.02v20.234h51.757v-20.238z"/><path d="m269.168 239.656-97.49 40.602 3.233 40.199 94.257-40.301 100.265-42.868 4.157-41.122z" fill="#fff"/><path d="m171.677 280.258 3.233 40.199 94.257-40.301v-40.5z" fill="url(#b)"/><path d="m373.59 196.167-104.422 43.489v40.5l100.265-42.868z" fill="url(#c)"/><path d="m171.827 280.258 3.234 40.199 144.625.461-3.235 53.598-47.59 13.398-45.748-11.551-2.772-33.268h-42.508l5.545 64.225 85.945 25.412 85.479-24.951 11.09-127.523z" fill="url(#e)"/><path d="m269.168 280.258h-97.49l3.233 40.199 94.257.301zm0 107.528-.462.129-45.742-11.551-2.772-33.268h-42.507l5.544 64.225 85.939 25.412z" opacity=".05"/><path d="m162.898 196.167h210.692l-4.157 41.122h-201.453z" fill="url(#f)"/><path d="m269.168 196.167h-106.27l5.082 41.122h101.188z" opacity=".05"/></svg>