<svg viewBox="0 0 23 20.46348" xmlns="http://www.w3.org/2000/svg"><g fill="#61dafb"><path d="m18.9107 6.63257q-.36721-.126-.74042-.2333.06187-.25141.11441-.505c.56045-2.72064.194-4.91237-1.05739-5.63386-1.1998-.692-3.1621.02952-5.14394 1.75414q-.29293.2555-.57267.52554-.18727-.17951-.3811-.352c-2.07702-1.84419-4.15893-2.62125-5.40901-1.89763-1.19867.6939-1.55372 2.75443-1.04914 5.33276q.0753.383.17.76179c-.29458.08367-.57908.17284-.85127.26771-2.43503.84893-3.99017 2.17953-3.99017 3.55959 0 1.42546 1.66935 2.8552 4.20575 3.722q.3085.10494.62193.19442-.10179.408-.18068.82114c-.48106 2.53354-.10535 4.54521 1.09017 5.23484 1.23481.712 3.30725-.01985 5.32533-1.78387q.23926-.20917.47994-.44238.3029.29225.62173.56727c1.95477 1.68207 3.88531 2.36132 5.07982 1.66986 1.23369-.71416 1.63454-2.87525 1.114-5.50459q-.05955-.30124-.13792-.61481.21834-.06443.42772-.13355c2.63675-.87349 4.35221-2.28583 4.35221-3.73032 0-1.38506-1.60522-2.72461-4.0893-3.57975zm-6.1823-3.87676c1.69806-1.47781 3.28506-2.06124 4.00817-1.64421.77014.44421 1.06971 2.2354.5858 4.58441q-.04758.22953-.10342.45724a23.53752 23.53752 0 0 0 -3.07527-.48584 23.08128 23.08128 0 0 0 -1.94418-2.42647q.25838-.2491.5289-.48513zm-5.93729 8.63543q.312.60265.65207 1.19013.34692.59911.7221 1.18117a20.92168 20.92168 0 0 1 -2.11967-.3408c.20306-.65574.45326-1.33731.7455-2.0305zm-.00111-2.31083c-.28613-.67863-.53093-1.34586-.73085-1.99019.65624-.14688 1.356-.26689 2.08516-.358q-.36611.571-.7051 1.15877-.33845.58701-.64921 1.18942zm.52228 1.15552q.45411-.94517.9783-1.8542v.0002q.52369-.90857 1.11521-1.77542c.684-.05171 1.38536-.07879 2.09432-.07879.71212 0 1.41437.02728 2.09819.0794q.58514.86487 1.10818 1.76941.52565.90635.99153 1.84545-.46083.94817-.98828 1.86173h-.0001q-.52261.90786-1.1034 1.7803c-.6824.04876-1.3876.0739-2.10623.0739-.71568 0-1.41193-.02229-2.08241-.06575q-.59555-.86995-1.12406-1.78305-.52564-.90763-.98126-1.85318zm8.24853 2.33862q.347-.60182.667-1.21863a20.86671 20.86671 0 0 1 .77238 2.02327 20.85164 20.85164 0 0 1 -2.14552.36573q.36468-.5781.70613-1.17037zm.65767-3.49343q-.31883-.605-.66163-1.19684-.33727-.58258-.6994-1.15022c.7339.09263 1.437.21579 2.09717.36654a20.95909 20.95909 0 0 1 -.73615 1.98052zm-4.70748-5.13753a21.01288 21.01288 0 0 1 1.3535 1.63393q-1.35843-.06419-2.7184-.00061c.4469-.58926.9046-1.13669 1.3649-1.63332zm-5.29816-2.80278c.76953-.44543 2.47095.18973 4.26428 1.782.11461.10179.22974.20836.34507.3186a23.54542 23.54542 0 0 0 -1.95925 2.42467 24.008 24.008 0 0 0 -3.06916.477q-.088-.35228-.15808-.70866v.0001c-.43231-2.20916-.14526-3.87552.57714-4.29371zm-1.12152 12.04152q-.286-.08187-.56778-.17773a8.32371 8.32371 0 0 1 -2.68254-1.42505 2.03072 2.03072 0 0 1 -.85849-1.36724c0-.83742 1.24865-1.90571 3.33117-2.63178q.39208-.1361.79162-.24908a23.56455 23.56455 0 0 0 1.121 2.90478 23.92247 23.92247 0 0 0 -1.13498 2.9461zm5.32462 4.47867a8.32161 8.32161 0 0 1 -2.57467 1.61184h-.0001a2.03042 2.03042 0 0 1 -1.61306.06067c-.72556-.41836-1.02706-2.03376-.61573-4.20035q.07337-.38407.168-.76363a23.10444 23.10444 0 0 0 3.0995.44869 23.90954 23.90954 0 0 0 1.97431 2.43929q-.21419.20708-.43825.40349zm1.12223-1.11053c-.46569-.50253-.93015-1.05831-1.38383-1.65612q.66051.026 1.34566.02606.70326 0 1.38841-.03084a20.89425 20.89425 0 0 1 -1.35024 1.66088zm5.96651 1.367a2.03039 2.03039 0 0 1 -.753 1.4278c-.72485.41958-2.275-.12581-3.94659-1.56431q-.2875-.24735-.57837-.52727a23.08914 23.08914 0 0 0 1.9279-2.448 22.93647 22.93647 0 0 0 3.11507-.48014q.07024.284.12449.55638a8.32 8.32 0 0 1 .1105 3.03556zm.83417-4.90739h-.0001c-.12571.04163-.25478.08184-.38629.12082a23.06121 23.06121 0 0 0 -1.16468-2.91373 23.05112 23.05112 0 0 0 1.11938-2.87128c.23524.0682.46365.14.68372.21579 2.12842.73258 3.42665 1.81593 3.42665 2.65061 0 .88916-1.40215 2.04345-3.67868 2.79781z"/><path d="m11.5 8.1585a2.05386 2.05386 0 1 1 -2.05381 2.05381 2.05381 2.05381 0 0 1 2.05381-2.05381"/></g></svg>